<?xml version="1.0" encoding="utf-8"?>
<!-- Generator: Adobe Illustrator 26.0.1, SVG Export Plug-In . SVG Version: 6.00 Build 0)  -->
<svg version="1.1" id="Layer_1" xmlns="http://www.w3.org/2000/svg" xmlns:xlink="http://www.w3.org/1999/xlink" x="0px" y="0px"
	 viewBox="0 0 28.2 28.2" style="enable-background:new 0 0 28.2 28.2;" xml:space="preserve">
<style type="text/css">
	.st0{fill:none;stroke:#FFFFFF;stroke-width:1.5;stroke-linecap:round;}
	.st1{fill:none;stroke:#FFFFFF;stroke-width:3;stroke-linecap:round;}
</style>
<g id="Layer_1-2">
	<path class="st0" d="M7.5,9.6h10.8c1.8,0,3.3,1.5,3.3,3.3c0,0,0,0,0,0v3.5c0,1.8-1.5,3.3-3.3,3.3h-6.2c-1.6,0-3-1.2-3.3-2.8
		L7.5,9.6z M7.5,9.6L7,8.1C6.9,7.8,6.6,7.5,6.2,7.5H4.6"/>
	<path class="st1" d="M12.3,22.7L12.3,22.7"/>
	<path class="st1" d="M18.9,22.7L18.9,22.7"/>
	<path class="st0" d="M13.1,15l0.6,0.8c0.3,0.3,0.8,0.4,1.2,0.1c0,0,0.1,0,0.1-0.1l2.2-2.6"/>
</g>
</svg>
