<svg xmlns="http://www.w3.org/2000/svg" viewBox="0 0 28.21 28.21"><defs><style>.cls-1{fill:#ff9800;}.cls-2,.cls-3{fill:none;stroke:#fff;stroke-linecap:round;}.cls-2{stroke-width:1.5px;}.cls-3{stroke-width:3px;}</style></defs><g id="Layer_2" data-name="Layer 2"><g id="Layer_1-2" data-name="Layer 1"><circle class="cls-1" cx="14.1" cy="14.1" r="14.1"/><path class="cls-2" d="M7.49,9.65H18.3A3.32,3.32,0,0,1,21.62,13v3.45a3.32,3.32,0,0,1-3.32,3.32H12.08A3.32,3.32,0,0,1,8.81,17Zm0,0L7,8.09a.85.85,0,0,0-.79-.57H4.59"/><path class="cls-3" d="M12.27,22.69h0"/><path class="cls-3" d="M18.92,22.69h0"/><path class="cls-2" d="M13.1,15l.65.75a.84.84,0,0,0,1.26,0l2.25-2.6"/></g></g></svg>