<?xml version="1.0" encoding="utf-8"?>
<!-- Generator: Adobe Illustrator 26.0.1, SVG Export Plug-In . SVG Version: 6.00 Build 0)  -->
<svg version="1.1" id="Layer_1" xmlns="http://www.w3.org/2000/svg" xmlns:xlink="http://www.w3.org/1999/xlink" x="0px" y="0px"
	 viewBox="0 0 61 91" style="enable-background:new 0 0 61 91;" xml:space="preserve">
<style type="text/css">
	.st0{fill:#C7C7C7;}
</style>
<path class="st0" d="M50.4,45.5c-5.4-4.3-10.3-8.2-15.2-12c-8-6.3-16.1-12.4-23.9-18.9c-3.3-2.7-6-6-9-9.1C1.1,4.2,0,2.5,1.5,0.9
	C3.2-0.9,5,0.3,6.4,1.6c14.9,14.8,33.4,25,49.7,37.9c4.8,3.8,5.5,7,1.4,11.7c-1.3,1.5-2.6,2.9-4.1,4.2C42.7,64.7,32,73.9,21.1,82.9
	c-3.5,2.9-7.7,4.8-11.7,7.1c-0.7,0.4-2.5,0.2-2.6-0.1C6.4,88.7,6,87,6.6,86.2c2.2-3.2,4.3-6.6,7.1-9.2c6.8-6.3,14.1-12.1,21.1-18.2
	c4.1-3.6,8.2-7.2,12.4-10.8C48.1,47.3,49.1,46.6,50.4,45.5z"/>
</svg>
