<?xml version="1.0" encoding="utf-8"?>
<!-- Generator: Adobe Illustrator 26.0.1, SVG Export Plug-In . SVG Version: 6.00 Build 0)  -->
<svg version="1.1" id="Layer_1" xmlns="http://www.w3.org/2000/svg" xmlns:xlink="http://www.w3.org/1999/xlink" x="0px" y="0px"
	 viewBox="0 0 130 127" style="enable-background:new 0 0 130 127;" xml:space="preserve">
<style type="text/css">
	.st0{clip-path:url(#SVGID_00000047765733273004702140000000506697615859887000_);}
	.st1{fill:#232830;}
</style>
<g>
	<defs>
		<rect id="SVGID_1_" x="0.8" width="129" height="127"/>
	</defs>
	<clipPath id="SVGID_00000038414351130126603590000008533804766308341379_">
		<use xlink:href="#SVGID_1_"  style="overflow:visible;"/>
	</clipPath>
	<g style="clip-path:url(#SVGID_00000038414351130126603590000008533804766308341379_);">
		<path class="st1" d="M62.4,76.1c-11.2,10-22.2,19.8-33.1,29.6c-6.3,5.7-12.4,11.7-18.6,17.4c-1.7,1.6-3.6,2.8-5.7,3.8
			c-1,0.4-3.3,0-3.8-0.8c-0.7-1.1-0.5-2.9-0.1-4.3c0.3-1,1.3-1.8,2.2-2.6c15.5-15.3,31-30.5,46.5-45.7c1.7-1.7,3.5-3.4,5.5-5.3
			c-6.8-7.5-13.6-14.8-20-22.3C24.9,33.8,14.8,21.7,4.6,9.6C4.2,9.1,3.9,8.6,3.5,8.2c-1.8-2.1-3-4.4-1-7c1.5-1.9,5.2-1.6,7.7,1
			c6.3,6.5,12.5,13.2,18.6,19.9C39.9,34.3,51,46.7,62.1,59c0.5,0.4,1,0.9,1.5,1.2c8.6-8.2,17.1-16.4,25.6-24.5
			c9.9-9.4,19.9-18.8,29.9-28.1c3.8-3.5,6.8-4.1,9.1-2.1c2.4,2.1,2.2,5.7-1.6,9.5c-10.3,10.3-20.8,20.3-31.4,30.3
			c-8,7.6-16.2,15.2-24.7,23.1c6.9,7.2,13.6,14.3,20.5,21.1c6.7,6.6,13.7,12.7,20.5,19.1c2.7,2.4,5.2,5,7.5,7.8
			c1.9,2.3,2.1,5.2-0.2,7.5c-2.3,2.3-4.9,1.5-7-0.2c-4.2-3.1-8.1-6.4-11.9-9.9c-11.6-11.4-23-23-34.5-34.5
			C64.5,78.3,63.6,77.4,62.4,76.1z"/>
	</g>
</g>
</svg>
