<svg xmlns="http://www.w3.org/2000/svg" viewBox="0 0 22 20.5"><defs><style>.cls-1,.cls-2,.cls-3{fill:none;stroke:#d63c00;stroke-linecap:round;}.cls-1,.cls-2{stroke-width:1.5px;}.cls-2{stroke-linejoin:round;}.cls-3{stroke-width:3px;}</style></defs><g id="Layer_2" data-name="Layer 2"><g id="Layer_1-2" data-name="Layer 1"><path class="cls-1" d="M4.24,3.31,3.6,1.43a1,1,0,0,0-1-.68H.75M4.24,3.31h13a4,4,0,0,1,4,4v4.14a4,4,0,0,1-4,4H9.77a4,4,0,0,1-3.94-3.29Z"/><path class="cls-2" d="M16.4,8.2a3.06,3.06,0,0,1-.23,1.15A3,3,0,0,1,14.55,11a3.06,3.06,0,0,1-1.15.23A3,3,0,0,1,12.25,11a2.9,2.9,0,0,1-1-.65,3,3,0,0,1-.65-1A2.88,2.88,0,0,1,10.4,8.2"/><path class="cls-3" d="M10,19h0"/><path class="cls-3" d="M18,19h0"/></g></g></svg>