<svg xmlns="http://www.w3.org/2000/svg" viewBox="0 0 127.17 127.17"><defs><style>.cls-1{fill:#bd554f;}.cls-2{fill:#e15e12;}.cls-3{fill:#0299b1;}.cls-4{fill:#45c0d0;}.cls-5{fill:#bf1334;}.cls-6{fill:#fff7d3;}.cls-7{fill:#d63c00;}.cls-8{fill:#8cd1cc;}.cls-9{fill:#ef260d;}.cls-10{fill:#840000;}.cls-11{fill:#ffad22;}.cls-12{fill:#ff9800;}</style></defs><g id="Layer_2" data-name="Layer 2"><g id="Layer_1-2" data-name="Layer 1"><path class="cls-1" d="M115.38,42.13a25.42,25.42,0,0,1,0,42.91,25.23,25.23,0,0,0-5.22-10.68,48.4,48.4,0,0,0,1.22-10.78,47.79,47.79,0,0,0-1.22-10.77A25.21,25.21,0,0,0,115.38,42.13Z"/><path class="cls-2" d="M115.39,85A25.43,25.43,0,0,1,85,115.38a25.36,25.36,0,0,0,3.87-11.25A48,48,0,0,0,104.13,88.9,25.3,25.3,0,0,0,115.39,85Z"/><path class="cls-3" d="M108.55,18.62a25.4,25.4,0,0,1,6.83,23.51,25.36,25.36,0,0,0-11.25-3.87A48,48,0,0,0,88.91,23,25.4,25.4,0,0,0,85,11.78,25.43,25.43,0,0,1,108.55,18.62Z"/><path class="cls-4" d="M115.38,42.13a25.21,25.21,0,0,1-5.21,10.68,47.56,47.56,0,0,0-6-14.55A25.36,25.36,0,0,1,115.38,42.13Z"/><path class="cls-5" d="M110.17,74.36A25.23,25.23,0,0,1,115.39,85a25.3,25.3,0,0,1-11.26,3.86A47.4,47.4,0,0,0,110.17,74.36Z"/><path class="cls-6" d="M110.17,52.81a47.79,47.79,0,0,1,1.22,10.77,48.4,48.4,0,0,1-1.22,10.78c-.51-.61-1-1.21-1.62-1.78a25.43,25.43,0,0,0-28.21-5.31,17.63,17.63,0,0,0-4-2.18c0-.5,0-1,0-1.51a23.48,23.48,0,0,1,.16-2.79,30.08,30.08,0,0,0,3.27-1.18,25.43,25.43,0,0,0,28.82-5C109.12,54,109.66,53.42,110.17,52.81Z"/><path class="cls-6" d="M110.17,52.81c-.51.61-1,1.21-1.62,1.78a25.43,25.43,0,0,1-28.82,5c5-2.12,8.69-5.52,8.69-10.93A11.47,11.47,0,0,0,87,42.87a25.33,25.33,0,0,1,14.76-4.72,23.82,23.82,0,0,1,2.4.11A47.56,47.56,0,0,1,110.17,52.81Z"/><path class="cls-6" d="M108.55,72.58c.57.57,1.11,1.17,1.62,1.78a47.4,47.4,0,0,1-6,14.54,23.81,23.81,0,0,1-2.4.12,25.94,25.94,0,0,1-4-.31c1.33-1.8,1.89-4.23,1.89-7.34h-.42c0,2.11-.29,6.07-2.44,7.16a23.93,23.93,0,0,1-3.69-1c-1.26-1.5-2.87-4.61-5.79-10.85-1.81-3.87-3.79-7.07-7-9.39A25.43,25.43,0,0,1,108.55,72.58Z"/><path class="cls-6" d="M104.13,38.26a23.82,23.82,0,0,0-2.4-.11A25.33,25.33,0,0,0,87,42.87a11.18,11.18,0,0,0-2.48-3A25.26,25.26,0,0,0,89,25.43c0-.8,0-1.6-.11-2.39A48,48,0,0,1,104.13,38.26Z"/><path class="cls-6" d="M101.73,89a23.81,23.81,0,0,0,2.4-.12,48,48,0,0,1-15.22,15.23c.07-.79.11-1.59.11-2.4a25.31,25.31,0,0,0-1.7-9.16c5.34-.18,8.62-1.43,10.44-3.86A25.94,25.94,0,0,0,101.73,89Z"/><path class="cls-7" d="M99.23,81.37h.42c0,3.11-.56,5.54-1.89,7.34-.33,0-.65-.11-1-.18C98.94,87.44,99.23,83.48,99.23,81.37Z"/><path class="cls-7" d="M96.79,88.53c.32.07.64.13,1,.18-1.82,2.43-5.1,3.68-10.44,3.86A25.48,25.48,0,0,0,69.11,76.91a24.51,24.51,0,0,1,3.47-4.33,24.94,24.94,0,0,1,4.33-3.48A25.48,25.48,0,0,0,93.1,87.51a2.93,2.93,0,0,0,2.45,1.31A2.61,2.61,0,0,0,96.79,88.53Z"/><path class="cls-6" d="M96.79,88.53a2.61,2.61,0,0,1-1.24.29,2.93,2.93,0,0,1-2.45-1.31A23.93,23.93,0,0,0,96.79,88.53Z"/><path class="cls-7" d="M87.31,76.66C90.23,82.9,91.84,86,93.1,87.51A25.48,25.48,0,0,1,76.91,69.1a25.68,25.68,0,0,1,3.43-1.83C83.52,69.59,85.5,72.79,87.31,76.66Z"/><path class="cls-6" d="M88.91,23c.07.79.11,1.59.11,2.39a25.26,25.26,0,0,1-4.53,14.48c-4.8-4.09-13.06-5-19.28-5.25a25.29,25.29,0,0,1,7.37-16c.57-.57,1.17-1.12,1.78-1.62A47.56,47.56,0,0,1,88.91,23Z"/><path class="cls-6" d="M89,101.73c0,.81,0,1.61-.11,2.4a47.54,47.54,0,0,1-14.55,6,22.44,22.44,0,0,1-1.78-1.62,25.43,25.43,0,0,1-4.29-30.25c.14.51.28,1,.43,1.44,3.15,9.46,7.16,12.86,17.2,12.86l1.4,0A25.31,25.31,0,0,1,89,101.73Z"/><path class="cls-8" d="M85,11.78A25.4,25.4,0,0,1,88.91,23a47.56,47.56,0,0,0-14.55-6A25.34,25.34,0,0,1,85,11.78Z"/><path class="cls-9" d="M88.91,104.13A25.36,25.36,0,0,1,85,115.38a25.23,25.23,0,0,1-10.68-5.22A47.54,47.54,0,0,0,88.91,104.13Z"/><path class="cls-7" d="M87,42.87a11.47,11.47,0,0,1,1.45,5.81c0,5.41-3.73,8.81-8.69,10.93a22.8,22.8,0,0,1-2.82-1.55A25.47,25.47,0,0,1,87,42.87Z"/><path class="cls-7" d="M87.32,92.57l-1.4,0c-10,0-14-3.4-17.2-12.86-.15-.45-.29-.93-.43-1.44.25-.47.53-.93.82-1.38A25.48,25.48,0,0,1,87.32,92.57Z"/><path class="cls-7" d="M87,42.87A25.47,25.47,0,0,0,76.91,58.06a25.35,25.35,0,0,1-4.33-3.47,24.63,24.63,0,0,1-2.34-2.69c.07-.62.11-1.27.13-1.95a25.48,25.48,0,0,0,14.12-10A11.18,11.18,0,0,1,87,42.87Z"/><path class="cls-7" d="M84.49,39.91A25.48,25.48,0,0,1,70.37,50c0-.42,0-.84,0-1.27,0-5.38-1.35-10-5.27-12.22,0-.6,0-1.2.08-1.8C71.43,34.87,79.69,35.82,84.49,39.91Z"/><path class="cls-7" d="M76.35,65.09a17.63,17.63,0,0,1,4,2.18,25.68,25.68,0,0,0-3.43,1.83A25.15,25.15,0,0,1,76.35,65.09Z"/><path class="cls-7" d="M79.73,59.61a30.08,30.08,0,0,1-3.27,1.18,24.66,24.66,0,0,1,.45-2.73A22.8,22.8,0,0,0,79.73,59.61Z"/><path class="cls-10" d="M85,11.78A25.34,25.34,0,0,0,74.36,17a48.19,48.19,0,0,0-21.55,0,25.34,25.34,0,0,0-10.68-5.22,25.43,25.43,0,0,1,42.91,0Z"/><path class="cls-7" d="M74.36,110.16A25.23,25.23,0,0,0,85,115.38a25.42,25.42,0,0,1-42.91,0,25.23,25.23,0,0,0,10.68-5.22,48.19,48.19,0,0,0,21.55,0Z"/><path class="cls-7" d="M76.91,58.06a24.66,24.66,0,0,0-.45,2.73A58.52,58.52,0,0,1,62.62,62.9l-.15-.66c4.7-1,7.17-4.35,7.77-10.34a24.63,24.63,0,0,0,2.34,2.69A25.35,25.35,0,0,0,76.91,58.06Z"/><path class="cls-7" d="M76.35,65.09a25.15,25.15,0,0,0,.56,4,24.94,24.94,0,0,0-4.33,3.48,24.51,24.51,0,0,0-3.47,4.33q-.61-.14-1.23-.24C66.45,70.85,64.92,63,58.76,63v-.41a16.89,16.89,0,0,0,3.71-.37l.15.66V63C68.57,63,73,63.75,76.35,65.09Z"/><path class="cls-6" d="M76.46,60.79a23.48,23.48,0,0,0-.16,2.79c0,.51,0,1,0,1.51C73,63.75,68.57,63,62.62,63V62.9A58.52,58.52,0,0,0,76.46,60.79Z"/><path class="cls-6" d="M74.36,17c-.61.5-1.21,1.05-1.78,1.62a25.29,25.29,0,0,0-7.37,16C64,34.61,63,34.6,62,34.6a25.32,25.32,0,0,0-7.37-16c-.57-.57-1.17-1.11-1.78-1.62a48.19,48.19,0,0,1,21.55,0Z"/><path class="cls-6" d="M72.58,108.54a22.44,22.44,0,0,0,1.78,1.62,48.19,48.19,0,0,1-21.55,0c.61-.5,1.21-1,1.79-1.62A25.32,25.32,0,0,0,62,91.94h2.25v-.41l.9,0A25.29,25.29,0,0,0,72.58,108.54Z"/><path class="cls-6" d="M70.4,48.68c0,.43,0,.85,0,1.27-.42.11-.84.22-1.26.31a25.4,25.4,0,0,1-4-13.8C69.05,38.7,70.4,43.3,70.4,48.68Z"/><path class="cls-6" d="M70.37,50c0,.68-.06,1.33-.13,1.95-.4-.54-.78-1.08-1.13-1.64C69.53,50.17,70,50.06,70.37,50Z"/><path class="cls-6" d="M69.11,50.26c.35.56.73,1.1,1.13,1.64-.6,6-3.07,9.3-7.77,10.34a16.89,16.89,0,0,1-3.71.37H56.39v-10a24.94,24.94,0,0,0,1.68-2.33,25.28,25.28,0,0,0,11,0Z"/><path class="cls-7" d="M69.11,76.91c-.29.45-.57.91-.82,1.38-.14-.52-.28-1.06-.41-1.62Q68.5,76.77,69.11,76.91Z"/><path class="cls-6" d="M67.88,76.67c.13.56.27,1.1.41,1.62A25.46,25.46,0,0,0,65.15,91.5l-.9,0H62a25.45,25.45,0,0,0-4-14.62,25.18,25.18,0,0,1,9.81-.24Z"/><path class="cls-6" d="M58.76,63c6.16,0,7.69,7.83,9.12,13.65a25.18,25.18,0,0,0-9.81.24,24.94,24.94,0,0,0-1.68-2.33V63Z"/><path class="cls-6" d="M65.13,36.46a25.4,25.4,0,0,0,4,13.8,25.28,25.28,0,0,1-11,0A25.5,25.5,0,0,0,62,35.31,10.58,10.58,0,0,1,65.13,36.46Z"/><path class="cls-7" d="M65.21,34.66c0,.6-.07,1.2-.08,1.8A10.58,10.58,0,0,0,62,35.31c0-.24,0-.48,0-.71C63,34.6,64,34.61,65.21,34.66Z"/><path class="cls-7" d="M64.25,91.53v.41H62c0-.14,0-.28,0-.41Z"/><path class="cls-6" d="M58.07,76.91a25.45,25.45,0,0,1,4,14.62H56.39V77.34C56.94,77.18,57.5,77,58.07,76.91Z"/><path class="cls-7" d="M56.39,91.53H62c0,.13,0,.27,0,.41H40.11a25.5,25.5,0,0,1,16.28-14.6Z"/><path class="cls-6" d="M62,35.31a25.5,25.5,0,0,1-3.94,14.95c-.57-.13-1.13-.27-1.68-.43V35h2.42A15.79,15.79,0,0,1,62,35.31Z"/><path class="cls-6" d="M40.11,91.94H62a25.32,25.32,0,0,1-7.4,16.6c-.58.58-1.18,1.12-1.79,1.62a47.14,47.14,0,0,1-14.54-6,23.81,23.81,0,0,1-.12-2.4A25.31,25.31,0,0,1,40.11,91.94Z"/><path class="cls-7" d="M62,34.6c0,.23,0,.47,0,.71a15.79,15.79,0,0,0-3.2-.31H56.39V49.83A25.5,25.5,0,0,1,39.85,34.59H62Z"/><path class="cls-6" d="M62,34.6H39.85a25.31,25.31,0,0,1-1.7-9.16A23.61,23.61,0,0,1,38.27,23a47.4,47.4,0,0,1,14.54-6c.61.51,1.21,1.05,1.78,1.62A25.32,25.32,0,0,1,62,34.6Z"/><path class="cls-7" d="M58.76,62.61V63H56.39V74.58a23.93,23.93,0,0,0-1.79-2,25.39,25.39,0,0,0-4.34-3.48,25.28,25.28,0,0,0,0-11,25.35,25.35,0,0,0,4.33-3.47,22.41,22.41,0,0,0,1.8-2v10Z"/><path class="cls-6" d="M56.39,49.83c.55.16,1.11.3,1.68.43a24.94,24.94,0,0,1-1.68,2.33Z"/><path class="cls-6" d="M58.07,76.91c-.57.12-1.13.27-1.68.43V74.58A24.94,24.94,0,0,1,58.07,76.91Z"/><path class="cls-7" d="M56.39,74.58v2.76a25.5,25.5,0,0,0-16.28,14.6H32.22v-.41h7.29V84.76A25.43,25.43,0,0,0,50.26,69.1a25.39,25.39,0,0,1,4.34,3.48A23.93,23.93,0,0,1,56.39,74.58Z"/><path class="cls-7" d="M56.39,49.83v2.76a22.41,22.41,0,0,1-1.8,2,25.35,25.35,0,0,1-4.33,3.47A25.43,25.43,0,0,0,39.51,42.4V35H32.22v-.41h7.63A25.5,25.5,0,0,0,56.39,49.83Z"/><path class="cls-7" d="M50.26,58.06a25.28,25.28,0,0,1,0,11,25.27,25.27,0,0,0-10.75-3.8V61.87A25.28,25.28,0,0,0,50.26,58.06Z"/><path class="cls-5" d="M42.13,11.78A25.34,25.34,0,0,1,52.81,17a47.4,47.4,0,0,0-14.54,6A25.22,25.22,0,0,1,42.13,11.78Z"/><path class="cls-11" d="M52.81,110.16a25.23,25.23,0,0,1-10.68,5.22,25.22,25.22,0,0,1-3.86-11.25A47.14,47.14,0,0,0,52.81,110.16Z"/><path class="cls-7" d="M39.51,42.4A25.43,25.43,0,0,1,50.26,58.06a25.28,25.28,0,0,1-10.75,3.81Z"/><path class="cls-7" d="M50.26,69.1A25.43,25.43,0,0,1,39.51,84.76V65.3A25.27,25.27,0,0,1,50.26,69.1Z"/><path class="cls-6" d="M32.22,91.94h7.89a25.31,25.31,0,0,0-2,9.79,23.81,23.81,0,0,0,.12,2.4A48,48,0,0,1,23,88.9a23.76,23.76,0,0,0,2.39.12,25.27,25.27,0,0,0,14.08-4.26v6.77H32.22Z"/><path class="cls-6" d="M39.85,34.59H32.22V35h7.29v7.4a25.26,25.26,0,0,0-14.08-4.25,23.75,23.75,0,0,0-2.39.11A47.92,47.92,0,0,1,38.27,23a23.61,23.61,0,0,0-.12,2.39A25.31,25.31,0,0,0,39.85,34.59Z"/><path class="cls-6" d="M39.51,65.3V84.76A25.27,25.27,0,0,1,25.43,89,23.76,23.76,0,0,1,23,88.9a47.14,47.14,0,0,1-6-14.54,22.44,22.44,0,0,1,1.62-1.78A25.32,25.32,0,0,1,39.51,65.3Z"/><path class="cls-6" d="M39.51,61.87V65.3a25.32,25.32,0,0,0-20.88,7.28A22.44,22.44,0,0,0,17,74.36a48.19,48.19,0,0,1,0-21.55,22.44,22.44,0,0,0,1.62,1.78A25.35,25.35,0,0,0,39.51,61.87Z"/><path class="cls-6" d="M39.51,42.4V61.87a25.35,25.35,0,0,1-20.88-7.28A22.44,22.44,0,0,1,17,52.81a47.3,47.3,0,0,1,6-14.55,23.75,23.75,0,0,1,2.39-.11A25.26,25.26,0,0,1,39.51,42.4Z"/><path class="cls-1" d="M42.13,11.78A25.22,25.22,0,0,0,38.27,23,47.92,47.92,0,0,0,23,38.26a25.44,25.44,0,0,0-11.26,3.87A25.44,25.44,0,0,1,42.13,11.78Z"/><path class="cls-12" d="M38.27,104.13a25.22,25.22,0,0,0,3.86,11.25A25.44,25.44,0,0,1,11.78,85,25.3,25.3,0,0,0,23,88.9,48,48,0,0,0,38.27,104.13Z"/><path class="cls-3" d="M11.78,42.13A25.44,25.44,0,0,1,23,38.26a47.3,47.3,0,0,0-6,14.55A25.25,25.25,0,0,1,11.78,42.13Z"/><path class="cls-8" d="M23,88.9A25.3,25.3,0,0,1,11.78,85,25.25,25.25,0,0,1,17,74.36,47.14,47.14,0,0,0,23,88.9Z"/><path class="cls-4" d="M17,52.81a48.19,48.19,0,0,0,0,21.55A25.25,25.25,0,0,0,11.78,85a25.43,25.43,0,0,1,0-42.91A25.25,25.25,0,0,0,17,52.81Z"/></g></g></svg>